<svg xmlns="http://www.w3.org/2000/svg" width="375" viewBox="0 0 375 375" height="375" version="1.0"><defs><clipPath id="a"><path d="M 218 201 L 230 201 L 230 210.832031 L 218 210.832031 Z M 218 201"/></clipPath><clipPath id="b"><path d="M 108 87.082031 L 256 87.082031 L 256 206 L 108 206 Z M 108 87.082031"/></clipPath><clipPath id="c"><path d="M 256 128 L 267.5625 128 L 267.5625 138 L 256 138 Z M 256 128"/></clipPath></defs><g clip-path="url(#a)"><path fill="#7C2714" d="M 228.578125 205.53125 L 222.566406 201.625 C 222.242188 201.417969 221.890625 201.277344 221.511719 201.210938 C 221.132812 201.144531 220.757812 201.15625 220.382812 201.246094 C 220.007812 201.332031 219.664062 201.492188 219.355469 201.71875 C 219.042969 201.949219 218.792969 202.226562 218.59375 202.558594 L 218.558594 202.617188 C 218.375 202.933594 218.257812 203.269531 218.203125 203.628906 C 218.148438 203.984375 218.164062 204.34375 218.25 204.695312 C 218.332031 205.046875 218.476562 205.375 218.6875 205.671875 C 218.898438 205.964844 219.152344 206.214844 219.457031 206.410156 L 225.46875 210.316406 C 225.9375 210.621094 226.453125 210.773438 227.011719 210.773438 C 227.230469 210.773438 227.449219 210.746094 227.660156 210.699219 C 228.441406 210.507812 229.039062 210.066406 229.445312 209.375 L 229.476562 209.324219 C 229.660156 209.011719 229.777344 208.675781 229.832031 208.316406 C 229.886719 207.957031 229.871094 207.601562 229.785156 207.246094 C 229.703125 206.894531 229.554688 206.570312 229.347656 206.273438 C 229.136719 205.976562 228.882812 205.730469 228.578125 205.53125 Z M 228.578125 205.53125"/></g><path fill="#7C2714" d="M 241.898438 190.484375 L 223.449219 178.199219 C 223.125 177.984375 222.769531 177.84375 222.390625 177.773438 C 222.007812 177.707031 221.625 177.714844 221.25 177.804688 C 220.871094 177.890625 220.523438 178.050781 220.210938 178.28125 C 219.898438 178.511719 219.644531 178.792969 219.449219 179.128906 L 219.417969 179.175781 C 219.238281 179.488281 219.121094 179.820312 219.066406 180.179688 C 219.011719 180.535156 219.027344 180.886719 219.109375 181.238281 C 219.1875 181.589844 219.332031 181.910156 219.535156 182.207031 C 219.742188 182.503906 219.992188 182.753906 220.292969 182.953125 L 238.742188 195.234375 C 239.214844 195.546875 239.738281 195.707031 240.308594 195.707031 C 240.519531 195.703125 240.730469 195.679688 240.9375 195.632812 C 241.730469 195.449219 242.332031 195.007812 242.742188 194.304688 L 242.769531 194.257812 C 242.953125 193.945312 243.070312 193.613281 243.121094 193.257812 C 243.175781 192.902344 243.164062 192.546875 243.082031 192.199219 C 243 191.847656 242.859375 191.523438 242.652344 191.230469 C 242.449219 190.933594 242.199219 190.683594 241.898438 190.484375 Z M 241.898438 190.484375"/><g clip-path="url(#b)"><path fill="#7C2714" d="M 254.175781 163.742188 C 250.660156 161.644531 239.136719 154.773438 232.085938 150.753906 C 232.765625 148.863281 233.410156 146.824219 234.035156 144.570312 C 235.828125 138.269531 237.011719 131.855469 237.585938 125.328125 C 237.699219 123.96875 237.808594 122.460938 237.839844 120.914062 L 247.695312 127.289062 C 248.019531 127.5 248.371094 127.636719 248.75 127.699219 C 249.128906 127.765625 249.503906 127.753906 249.878906 127.664062 C 250.253906 127.574219 250.59375 127.417969 250.902344 127.1875 C 251.210938 126.957031 251.464844 126.679688 251.660156 126.347656 L 251.691406 126.292969 C 251.875 125.976562 251.996094 125.640625 252.046875 125.28125 C 252.101562 124.921875 252.085938 124.566406 252.003906 124.214844 C 251.917969 123.859375 251.773438 123.535156 251.5625 123.238281 C 251.351562 122.941406 251.09375 122.695312 250.789062 122.5 L 237.121094 113.65625 C 236.605469 111.570312 235.691406 109.675781 234.386719 107.96875 C 230.964844 103.566406 225.191406 102.175781 220.023438 104.507812 C 217.324219 105.722656 215.144531 107.742188 214.050781 110.058594 C 213.078125 109.851562 212.09375 109.714844 211.101562 109.648438 L 216.046875 104.167969 C 216.878906 103.242188 217.703125 102.320312 218.539062 101.402344 C 218.714844 101.203125 218.914062 101 219.117188 100.796875 C 219.886719 100.007812 220.761719 99.117188 221.207031 97.929688 C 222.691406 93.957031 218.5 91.9375 216.925781 91.179688 C 216.390625 90.921875 215.84375 90.640625 215.300781 90.351562 C 212.882812 89.128906 210.191406 87.75 207.414062 87.46875 C 204.484375 87.175781 201.585938 88.375 199.027344 89.421875 C 198.402344 89.683594 197.8125 89.925781 197.242188 90.140625 C 194.414062 91.210938 190.695312 92.660156 187.039062 94.375 C 184.429688 95.660156 181.890625 97.074219 179.429688 98.625 C 175.726562 100.863281 172.230469 102.984375 168.335938 104.226562 C 168.0625 104.3125 167.8125 104.433594 167.574219 104.589844 C 166.292969 104.417969 165.050781 104.09375 163.847656 103.613281 C 162.972656 103.238281 162.128906 102.804688 161.3125 102.3125 C 159.535156 101.292969 157.515625 100.136719 155.070312 100.097656 C 153.339844 100.066406 151.753906 100.710938 150.363281 101.277344 C 149.09375 101.796875 147.890625 102.28125 146.785156 102.191406 C 146.332031 102.15625 145.847656 101.867188 145.285156 101.511719 C 144.515625 100.992188 143.675781 100.636719 142.765625 100.445312 C 141.359375 100.199219 140.019531 100.484375 138.835938 100.734375 C 138.28125 100.851562 137.757812 100.960938 137.269531 101.015625 C 134.167969 101.339844 130.890625 100.726562 127.722656 100.140625 C 127 100.007812 126.28125 99.875 125.570312 99.753906 L 113.5625 97.699219 C 113.46875 97.652344 113.371094 97.609375 113.269531 97.574219 C 112.839844 97.363281 112.386719 97.257812 111.910156 97.261719 C 111.433594 97.265625 110.980469 97.378906 110.554688 97.597656 C 110.101562 97.820312 109.738281 98.140625 109.457031 98.558594 C 109.175781 98.980469 109.019531 99.441406 108.984375 99.941406 C 108.722656 103.339844 108.449219 106.738281 108.171875 110.132812 C 107.898438 113.410156 107.796875 116.394531 109.261719 119.707031 C 109.449219 120.140625 109.652344 120.5625 109.847656 120.988281 C 110.347656 121.960938 110.753906 122.972656 111.074219 124.019531 C 111.4375 125.570312 111.65625 127.144531 111.722656 128.734375 L 111.765625 129.300781 C 111.96875 132.058594 112.195312 135.183594 113.609375 137.914062 C 115.078125 140.753906 117.960938 141.933594 120.617188 140.789062 C 123.925781 139.367188 124.542969 136.121094 125.035156 133.515625 L 125.054688 133.414062 C 125.3125 132.058594 125.769531 131.429688 125.90625 131.359375 C 126.117188 131.410156 126.304688 131.507812 126.460938 131.660156 C 127.371094 132.390625 128.234375 133.175781 129.050781 134.011719 C 129.484375 134.441406 129.917969 134.867188 130.351562 135.273438 C 130.695312 135.601562 131.042969 135.925781 131.394531 136.25 C 133.277344 137.96875 135.21875 139.742188 136.40625 141.839844 C 137.195312 143.242188 137.25 144.445312 137.335938 146.265625 L 137.335938 146.492188 C 137.414062 148.214844 137.917969 149.550781 138.875 150.578125 C 140.261719 152.070312 142.128906 152.710938 144.480469 152.484375 C 143.542969 160.945312 142.699219 168.714844 141.941406 176.65625 C 141.617188 180.175781 141.332031 183.398438 141.097656 186.515625 C 140.957031 188.414062 140.84375 190.09375 140.75 191.667969 C 140.75 191.867188 140.71875 192.078125 140.699219 192.289062 C 140.601562 193.386719 140.480469 194.75 141.121094 196.007812 C 141.761719 197.269531 142.863281 197.84375 143.75 198.320312 L 144.003906 198.457031 C 145.269531 199.144531 146.566406 199.816406 147.824219 200.460938 L 148.425781 200.769531 C 151.203125 202.199219 154.117188 203.648438 157.332031 205.203125 C 157.75 205.40625 158.191406 205.511719 158.65625 205.511719 C 159.128906 205.507812 159.574219 205.394531 159.988281 205.171875 C 160.40625 204.953125 160.75 204.648438 161.023438 204.261719 C 167.261719 195.914062 173.28125 187.21875 178.921875 178.386719 L 179.429688 178.835938 C 179.503906 178.898438 179.578125 178.960938 179.65625 179.015625 C 179.898438 180.277344 180.285156 181.5 180.808594 182.675781 C 181.320312 183.808594 182.003906 184.824219 182.855469 185.726562 C 183.707031 186.625 184.683594 187.363281 185.785156 187.9375 C 185.886719 188.023438 185.996094 188.097656 186.109375 188.160156 C 192.6875 192.148438 199.675781 196.335938 206.875 200.617188 C 207.292969 200.882812 207.75 201.019531 208.246094 201.03125 C 208.742188 201.042969 209.207031 200.925781 209.640625 200.683594 C 210.101562 200.417969 210.46875 200.058594 210.738281 199.601562 C 211.007812 199.144531 211.148438 198.652344 211.160156 198.121094 C 211.164062 197.621094 211.042969 197.15625 210.796875 196.722656 C 210.550781 196.289062 210.210938 195.949219 209.777344 195.703125 C 205.605469 193.226562 201.4375 190.726562 197.652344 188.453125 C 198.640625 188.058594 199.585938 187.570312 200.480469 186.992188 C 200.601562 186.949219 200.71875 186.894531 200.835938 186.832031 C 205.582031 184.320312 209.554688 180.480469 213.398438 176.773438 C 213.992188 176.203125 214.578125 175.632812 215.164062 175.074219 C 220.371094 170.132812 223.933594 166.011719 226.757812 161.714844 C 227.9375 159.910156 228.980469 158.03125 229.894531 156.078125 C 236.859375 160.054688 247.851562 166.613281 251.242188 168.640625 C 251.566406 168.832031 251.914062 168.957031 252.289062 169.011719 C 252.660156 169.0625 253.03125 169.042969 253.394531 168.949219 C 253.757812 168.855469 254.09375 168.691406 254.390625 168.464844 C 254.691406 168.238281 254.9375 167.960938 255.128906 167.636719 L 255.15625 167.589844 C 255.34375 167.269531 255.460938 166.925781 255.515625 166.554688 C 255.566406 166.1875 255.542969 165.824219 255.453125 165.464844 C 255.359375 165.105469 255.203125 164.777344 254.984375 164.476562 C 254.761719 164.179688 254.492188 163.933594 254.175781 163.742188 Z M 254.175781 163.742188"/></g><path fill="#7C2714" d="M 254.542969 145.84375 L 243.640625 139.078125 C 243.324219 138.882812 242.980469 138.753906 242.613281 138.695312 C 242.246094 138.636719 241.878906 138.648438 241.519531 138.734375 C 241.15625 138.820312 240.824219 138.972656 240.519531 139.1875 C 240.21875 139.40625 239.96875 139.671875 239.773438 139.988281 C 239.574219 140.304688 239.445312 140.644531 239.382812 141.011719 C 239.320312 141.378906 239.332031 141.746094 239.414062 142.109375 C 239.496094 142.472656 239.644531 142.804688 239.859375 143.109375 C 240.074219 143.414062 240.339844 143.664062 240.652344 143.863281 L 251.519531 150.679688 C 251.972656 150.96875 252.46875 151.113281 253.007812 151.113281 C 253.238281 151.113281 253.464844 151.085938 253.6875 151.027344 C 254.460938 150.84375 255.046875 150.410156 255.449219 149.726562 L 255.480469 149.675781 C 255.671875 149.359375 255.792969 149.015625 255.851562 148.652344 C 255.90625 148.285156 255.886719 147.925781 255.800781 147.566406 C 255.710938 147.207031 255.558594 146.878906 255.339844 146.582031 C 255.125 146.28125 254.855469 146.035156 254.542969 145.84375 Z M 254.542969 145.84375"/><g clip-path="url(#c)"><path fill="#7C2714" d="M 267.464844 134.148438 C 267.421875 133.726562 267.289062 133.332031 267.066406 132.96875 C 266.84375 132.605469 266.554688 132.304688 266.195312 132.074219 L 261.332031 128.917969 C 261.011719 128.707031 260.660156 128.570312 260.28125 128.503906 C 259.902344 128.4375 259.523438 128.449219 259.148438 128.535156 C 258.777344 128.625 258.433594 128.785156 258.125 129.011719 C 257.8125 129.242188 257.5625 129.519531 257.367188 129.851562 L 257.335938 129.90625 C 257.148438 130.21875 257.03125 130.554688 256.976562 130.917969 C 256.921875 131.277344 256.9375 131.636719 257.023438 131.988281 C 257.109375 132.34375 257.257812 132.671875 257.46875 132.96875 C 257.679688 133.265625 257.941406 133.511719 258.25 133.707031 L 263.128906 136.828125 C 263.59375 137.125 264.097656 137.269531 264.644531 137.269531 C 265.433594 137.269531 266.101562 136.992188 266.65625 136.4375 C 266.957031 136.136719 267.179688 135.785156 267.320312 135.386719 C 267.464844 134.984375 267.511719 134.570312 267.464844 134.148438 Z M 267.464844 134.148438"/></g><path fill="#FFEE9C" d="M 205.789062 111.625 C 207.207031 110.070312 208.464844 108.335938 209.785156 106.699219 C 212.140625 103.792969 214.949219 100.945312 216.976562 97.796875 C 218.34375 95.667969 216.441406 94.289062 214.753906 93.167969 C 212.25 91.507812 209.394531 89.910156 206.292969 90.238281 C 203.1875 90.5625 200.050781 92.535156 197.246094 93.816406 L 172.046875 105.25 C 171.855469 105.324219 171.746094 105.46875 171.722656 105.671875 C 170.960938 105.703125 170.988281 106.929688 171.800781 106.972656 C 174.433594 107.15625 177.089844 107.261719 179.726562 107.46875 C 177.722656 107.527344 175.730469 107.6875 173.742188 107.945312 C 171.464844 108.222656 169.1875 108.550781 166.910156 108.386719 C 164.117188 108.183594 161.914062 106.988281 159.53125 105.644531 C 157.019531 104.230469 152.101562 102.128906 149.769531 104.996094 C 146.683594 103.742188 141.480469 103.691406 140.027344 103.691406 C 136.1875 103.722656 132.328125 104.121094 128.488281 103.738281 C 123.894531 103.277344 119.5625 101.523438 115.320312 99.808594 C 114.84375 99.617188 114.375 100.175781 114.507812 100.621094 C 114.886719 101.835938 115.429688 102.96875 116.144531 104.023438 C 115.234375 103.078125 114.316406 102.144531 113.40625 101.214844 C 113.394531 101.203125 113.378906 101.191406 113.363281 101.179688 L 113.511719 100.9375 C 113.960938 100.214844 112.824219 99.550781 112.375 100.285156 C 109.171875 105.367188 109.828125 111.4375 111.261719 117 C 112.125 120.347656 113.214844 123.636719 113.773438 127.058594 C 114.234375 129.953125 114.289062 132.984375 115.515625 135.695312 C 116.238281 137.292969 117.511719 138.652344 119.371094 137.765625 C 121.429688 136.789062 122.011719 134.199219 122.929688 132.328125 C 123.667969 130.820312 124.578125 129.457031 126.398438 129.382812 C 127.296875 129.367188 128.128906 129.605469 128.882812 130.097656 C 129.613281 131.332031 130.597656 132.308594 131.839844 133.027344 C 132.035156 133.144531 132.238281 133.261719 132.441406 133.378906 C 134.46875 135.503906 136.265625 137.808594 137.832031 140.292969 C 139.257812 142.617188 142.265625 152.789062 146.765625 149.316406 C 147.742188 150.617188 147.625 152.320312 147.484375 153.90625 C 147.296875 156.042969 147.046875 158.183594 146.832031 160.316406 L 145.613281 172.285156 C 145.179688 176.421875 144.757812 180.554688 144.351562 184.683594 C 144.148438 186.679688 143.941406 188.675781 143.738281 190.671875 C 143.625 191.785156 143.210938 193.273438 143.855469 194.316406 C 144.546875 195.421875 146.238281 195.902344 147.324219 196.46875 L 152.992188 199.421875 C 155.273438 200.609375 157.195312 202.265625 159.40625 200.285156 C 161.863281 198.089844 163.964844 195.292969 165.714844 192.511719 C 167.71875 189.328125 175.859375 176.75 178.261719 173.71875 C 179.253906 172.5 180.042969 171.160156 180.625 169.699219 C 181.511719 167.421875 185.472656 163.574219 185.597656 163.457031 C 187.875 164.183594 190.300781 164.234375 192.472656 163.101562 C 193.859375 162.382812 195.117188 161.148438 195.402344 159.554688 C 195.570312 158.65625 194.46875 156.25 194.257812 155.800781 C 193.566406 154.347656 193.859375 153.308594 194.597656 151.984375 C 195.785156 149.863281 198.152344 147.023438 200.582031 146.347656 C 203.351562 145.585938 205.265625 148.058594 207.878906 148.183594 C 209.433594 148.257812 210.519531 147.40625 211.226562 146.074219 C 212.484375 143.714844 213.144531 140.835938 214.027344 138.320312 C 214.855469 135.964844 215.300781 133.710938 214.574219 131.894531 C 215.320312 129.179688 215.773438 126.410156 215.929688 123.597656 C 216.0625 121.097656 216.355469 117.570312 215.421875 115.183594 C 214.773438 113.511719 212.703125 113.480469 211.167969 113.273438 C 208.980469 112.972656 206.777344 112.886719 204.578125 112.742188 C 205.023438 112.414062 205.425781 112.042969 205.789062 111.625 Z M 143.074219 115.773438 C 142.492188 114.75 142.128906 113.933594 142.640625 112.84375 C 143.179688 111.679688 144.222656 111.734375 145.421875 111.449219 C 146.070312 111.292969 146.941406 111.15625 147.839844 110.949219 C 147.761719 111.328125 147.683594 111.691406 147.589844 112.035156 C 146.996094 114.289062 146.402344 116.550781 145.808594 118.816406 C 144.707031 117.972656 143.792969 116.957031 143.074219 115.773438 Z M 174.140625 124.886719 C 175.03125 129.9375 172.839844 136.140625 167.957031 138.382812 C 163.636719 140.367188 162.75 134.257812 160.328125 132.242188 C 159.871094 131.890625 159.355469 131.722656 158.777344 131.738281 C 158.742188 130.976562 158.605469 130.234375 158.367188 129.515625 C 158 128.4375 157.457031 127.460938 156.738281 126.585938 C 156.992188 125.726562 157.039062 124.75 157.289062 123.949219 C 158.195312 121.148438 160.726562 118.347656 163.996094 119.039062 C 167.515625 119.773438 168.4375 124.320312 172.25 124.878906 C 172.878906 124.96875 173.507812 124.972656 174.140625 124.898438 Z M 182.078125 144 C 182.339844 142.972656 182.8125 142.0625 183.503906 141.261719 C 183.914062 141.988281 184.40625 142.648438 184.984375 143.25 C 186.445312 144.796875 188.519531 147.667969 184.757812 148.648438 C 183.84375 148.886719 182.839844 148.757812 181.878906 148.792969 C 181.910156 147.203125 181.714844 145.566406 182.078125 144.011719 Z M 186.832031 127.132812 C 186.164062 125.742188 185.648438 124.300781 185.277344 122.800781 C 188.648438 116.488281 197.761719 117.53125 203.058594 121.277344 C 204.765625 122.476562 205.738281 123.65625 206.078125 125.730469 C 206.183594 126.609375 206.335938 127.476562 206.535156 128.335938 C 205.863281 128.804688 205.664062 129.746094 205.261719 130.402344 C 204.363281 131.867188 202.90625 132.851562 201.480469 133.746094 C 199.730469 134.847656 197.757812 136.210938 195.585938 135.261719 C 194.339844 134.71875 193.34375 133.605469 192.109375 132.984375 C 191.011719 132.4375 189.859375 132.054688 188.648438 131.835938 C 188.324219 130.207031 187.539062 128.636719 186.832031 127.132812 Z M 186.832031 127.132812"/><path fill="#FFC76C" d="M 232.496094 110.441406 C 230.238281 107.183594 226.351562 105.164062 222.378906 106.128906 C 217.714844 107.28125 216.074219 111.921875 215.972656 116.265625 C 215.90625 119.074219 216.296875 121.871094 216.199219 124.683594 C 216.109375 127.511719 215.742188 130.304688 215.101562 133.0625 C 212.328125 144.992188 204.6875 155.570312 194.089844 161.753906 C 194.035156 161.792969 194.011719 161.84375 194.019531 161.910156 C 194.023438 161.976562 194.058594 162.023438 194.121094 162.050781 L 193.734375 163.113281 C 193.625 163.085938 193.554688 163.125 193.527344 163.234375 C 193.5 163.339844 193.539062 163.410156 193.644531 163.441406 C 197.628906 164.625 201.316406 166.105469 203 170.214844 C 204.28125 173.339844 204.273438 176.824219 204.222656 180.148438 C 204.226562 180.253906 204.28125 180.308594 204.386719 180.3125 C 206.414062 180.191406 208.472656 178.28125 210.039062 177.128906 C 212.109375 175.605469 214.054688 173.9375 215.875 172.125 C 219.523438 168.46875 222.636719 164.40625 225.210938 159.925781 C 231.101562 149.753906 233.960938 138.066406 234.777344 126.402344 C 235.128906 121.136719 235.65625 115.015625 232.496094 110.441406 Z M 232.496094 110.441406"/><path fill="#FFC76C" d="M 203.148438 171.132812 C 202.226562 168.5 200.515625 166.4375 197.941406 165.277344 C 196.511719 164.671875 195.03125 164.257812 193.496094 164.039062 C 191.90625 163.765625 188.308594 163.933594 187.539062 162.304688 C 187.453125 162.125 187.210938 162.257812 187.246094 162.429688 L 186.988281 162.503906 C 186.972656 162.441406 186.933594 162.402344 186.875 162.386719 C 186.8125 162.371094 186.761719 162.382812 186.71875 162.425781 C 184.4375 164.789062 183.464844 167.820312 182.984375 171.015625 C 182.507812 174.207031 182.125 177.78125 183.203125 180.902344 C 184.019531 183.273438 185.757812 185.421875 188.253906 186.109375 C 191.535156 187.003906 195.085938 185.480469 198.160156 184.503906 C 200.566406 183.746094 202.886719 183 203.761719 180.398438 C 204.714844 177.585938 204.101562 173.863281 203.148438 171.132812 Z M 203.148438 171.132812"/><path fill="#B7391C" d="M 172.515625 124.976562 C 170.734375 123.421875 168.472656 121.5625 166.3125 120.585938 C 163.890625 119.496094 161.453125 120.613281 159.261719 121.71875 C 159.183594 121.753906 159.160156 121.8125 159.1875 121.894531 L 158.796875 121.980469 C 158.761719 121.847656 158.570312 121.773438 158.503906 121.925781 C 157.597656 123.941406 156.875 126.582031 157.570312 128.761719 C 157.765625 129.460938 158.171875 130.003906 158.785156 130.390625 C 160.167969 131.382812 161.449219 132.101562 162.480469 133.511719 C 163.558594 134.988281 163.78125 137.605469 165.8125 138.164062 C 167.503906 138.632812 169.035156 137.578125 170.105469 136.367188 C 171.773438 134.417969 173.046875 132.234375 173.917969 129.816406 C 174.652344 127.785156 174.136719 126.390625 172.515625 124.976562 Z M 172.515625 124.976562"/><path fill="#B7391C" d="M 202.378906 121.511719 C 199.414062 120.3125 195.945312 119.289062 192.714844 119.503906 C 189.808594 119.695312 187.304688 121.230469 184.761719 122.515625 C 184.574219 122.609375 184.738281 122.894531 184.925781 122.800781 L 185.433594 122.539062 L 185.585938 122.507812 C 184.691406 123.316406 185.121094 124.550781 185.84375 125.433594 C 186.636719 126.410156 187.398438 127.125 187.761719 128.4375 C 187.914062 128.980469 187.949219 129.554688 188.085938 130.105469 C 188.296875 130.996094 188.574219 131.867188 189.351562 132.429688 C 190.328125 133.144531 191.628906 132.921875 192.730469 133.183594 C 194.144531 133.511719 195.335938 134.488281 196.734375 134.8125 C 198.921875 135.296875 200.433594 133.835938 201.742188 132.265625 C 204.234375 129.296875 207.507812 123.578125 202.378906 121.511719 Z M 202.378906 121.511719"/><path fill="#B7391C" d="M 207.691406 147.785156 C 206.476562 146.777344 204.8125 145.441406 203.167969 145.316406 C 201.523438 145.1875 200.425781 146.832031 199.34375 147.859375 L 195.871094 151.183594 C 195.335938 151.691406 194.507812 152.261719 194.199219 152.984375 C 193.570312 154.460938 195.125 156.035156 195.382812 157.457031 C 195.675781 159.085938 195.960938 161.507812 197.84375 159.675781 C 199.109375 158.445312 200.140625 156.972656 201.378906 155.707031 L 207.640625 149.300781 C 207.6875 149.25 207.699219 149.191406 207.671875 149.125 C 207.648438 149.0625 207.601562 149.027344 207.53125 149.019531 L 207.582031 148.042969 C 207.699219 148.058594 207.820312 147.890625 207.691406 147.785156 Z M 207.691406 147.785156"/><path fill="#00BF52" d="M 146.734375 111.308594 C 145.246094 111.539062 143.8125 111.949219 142.425781 112.53125 C 142.347656 112.558594 142.28125 112.605469 142.222656 112.660156 C 141.851562 112.269531 141.039062 112.40625 141.082031 113.078125 C 141.15625 114.230469 142.203125 114.820312 143.035156 115.503906 L 144.453125 116.71875 C 144.742188 116.957031 145.019531 117.253906 145.414062 117.273438 C 146.285156 117.3125 146.566406 116.21875 146.808594 115.574219 C 147.234375 114.402344 147.480469 113.195312 147.539062 111.949219 C 147.539062 111.851562 147.515625 111.753906 147.472656 111.667969 C 147.425781 111.578125 147.367188 111.5 147.289062 111.4375 C 147.210938 111.375 147.121094 111.335938 147.023438 111.3125 C 146.925781 111.289062 146.832031 111.289062 146.734375 111.308594 Z M 146.734375 111.308594"/><path fill="#00BF52" d="M 186.730469 146.085938 C 186.472656 144.707031 185.0625 143.21875 184.144531 142.199219 L 184.167969 142.070312 C 184.351562 141.246094 183.082031 140.894531 182.898438 141.722656 L 182.25 144.730469 C 182.09375 145.441406 181.808594 146.261719 181.972656 147.007812 C 182.261719 148.3125 183.648438 148.589844 184.773438 148.3125 C 185.808594 148.046875 186.957031 147.316406 186.730469 146.085938 Z M 186.730469 146.085938"/><path fill="#F9AB43" d="M 204.464844 175.417969 C 204.277344 174.996094 203.726562 175.046875 203.429688 175.289062 C 200.277344 177.863281 195.664062 176.539062 192.59375 174.507812 C 189.015625 172.136719 186.882812 168.105469 187.625 163.789062 C 187.769531 162.957031 186.5 162.601562 186.355469 163.4375 C 186.355469 163.453125 186.355469 163.46875 186.355469 163.480469 L 185.847656 163.382812 C 186.058594 162.609375 184.835938 162.289062 184.570312 163.074219 C 182.835938 168.046875 182.210938 173.15625 182.695312 178.398438 C 183.066406 182.089844 184.546875 186.136719 188.492188 187.207031 C 192.234375 188.21875 196.347656 186.589844 199.273438 184.292969 C 201.402344 182.605469 205.851562 178.496094 204.464844 175.417969 Z M 204.464844 175.417969"/><path fill="#F9AB43" d="M 234.597656 118.019531 C 233.914062 114.566406 232.222656 111.53125 230.472656 108.519531 C 230.402344 108.386719 230.296875 108.289062 230.160156 108.226562 C 230.019531 108.164062 229.878906 108.152344 229.730469 108.191406 C 229.582031 108.230469 229.464844 108.3125 229.375 108.433594 C 229.285156 108.554688 229.242188 108.691406 229.246094 108.84375 C 230.011719 129.859375 225.730469 153.324219 208.570312 167.304688 C 207.070312 168.527344 205.460938 169.582031 203.886719 170.703125 C 203.792969 170.675781 203.703125 170.675781 203.609375 170.695312 C 203.515625 170.71875 203.433594 170.761719 203.363281 170.824219 C 203.292969 170.882812 203.238281 170.960938 203.203125 171.046875 C 203.167969 171.136719 203.15625 171.230469 203.167969 171.324219 C 203.429688 174.386719 203.6875 177.449219 203.945312 180.515625 C 203.953125 180.800781 204.089844 181 204.355469 181.109375 C 204.621094 181.21875 204.859375 181.175781 205.066406 180.980469 C 215.960938 172.222656 224.867188 161.335938 230.203125 148.332031 C 232.898438 141.863281 234.496094 135.136719 235 128.148438 C 235.222656 124.777344 235.246094 121.320312 234.597656 118.019531 Z M 234.597656 118.019531"/><path fill="#F9CE64" d="M 212.46875 92.773438 C 212.414062 92.765625 212.363281 92.777344 212.324219 92.816406 C 212.1875 92.746094 212 92.886719 212.101562 93.035156 C 213.726562 95.246094 210.324219 97.878906 209.042969 99.257812 L 205.179688 103.40625 L 201.621094 107.234375 C 200.0625 108.90625 198.476562 111.042969 195.980469 111.085938 C 195.882812 111.089844 195.828125 111.136719 195.816406 111.230469 C 195.804688 111.328125 195.84375 111.386719 195.9375 111.414062 C 198.316406 112.121094 201.792969 113.953125 204.171875 112.414062 C 205.800781 111.367188 207.054688 109.378906 208.3125 107.945312 L 216.773438 98.359375 C 217.203125 97.867188 218.421875 96.921875 218.359375 96.105469 C 218.1875 94.082031 213.949219 92.992188 212.46875 92.773438 Z M 212.46875 92.773438"/><path fill="#F9CE64" d="M 183.785156 164.753906 C 185.128906 161.796875 182.132812 158.894531 180.074219 157.136719 C 178.855469 156.050781 177.453125 155.320312 175.863281 154.941406 C 173.65625 154.441406 171.578125 155.105469 169.375 155.105469 C 163.5 155.105469 164.234375 147.996094 160.957031 144.738281 C 158.109375 141.910156 154.015625 140.539062 150.792969 138.175781 C 148.789062 136.699219 146.945312 135.046875 145.261719 133.214844 C 143.984375 131.824219 142.769531 129.597656 140.863281 128.984375 C 140.367188 128.832031 139.859375 128.800781 139.34375 128.886719 C 138.832031 128.96875 138.363281 129.164062 137.9375 129.464844 C 137.304688 129.871094 136.726562 130.34375 136.203125 130.878906 C 135.761719 131.105469 135.367188 131.394531 135.011719 131.738281 C 134.003906 131.957031 133.53125 132.90625 133.835938 133.96875 C 134.121094 134.945312 135.015625 135.671875 135.691406 136.390625 C 136.796875 137.527344 137.773438 138.765625 138.621094 140.105469 C 139.453125 141.429688 140.015625 142.859375 140.308594 144.398438 C 140.511719 145.550781 140.382812 146.863281 140.828125 147.980469 C 141.425781 149.472656 142.683594 149.902344 144.203125 149.503906 C 145.855469 149.066406 147.457031 148.253906 147.785156 146.488281 C 148.007812 145.320312 147.957031 144 148.03125 142.8125 C 148.058594 142.445312 148.136719 142.003906 148.175781 141.558594 C 149.910156 142.640625 151.734375 143.71875 153.199219 145.078125 C 154.921875 146.675781 155.25 148.859375 156.453125 150.765625 C 157.363281 152.207031 158.625 153.4375 159.746094 154.714844 C 160.460938 155.53125 161.171875 156.394531 161.960938 157.15625 C 161.960938 157.234375 162.039062 157.332031 162.128906 157.320312 C 162.683594 157.851562 163.292969 158.308594 163.964844 158.6875 C 164.757812 159.082031 165.582031 159.394531 166.441406 159.625 C 168.414062 160.277344 170.117188 160.820312 170.070312 163.085938 C 170.035156 164.671875 169.160156 164.816406 168.789062 166.109375 C 168.785156 166.136719 168.777344 166.167969 168.765625 166.195312 C 166.226562 169.332031 163.777344 172.542969 161.414062 175.824219 C 160.082031 177.691406 158.78125 179.578125 157.511719 181.480469 C 156.207031 183.433594 155.070312 185.695312 153.496094 187.453125 C 152.550781 188.503906 150.765625 188.863281 150.027344 190.03125 C 149.824219 190.359375 149.800781 191.832031 149.773438 192.1875 C 149.679688 193.398438 148.992188 194.082031 148.320312 194.988281 C 148.171875 195.191406 148.046875 195.40625 147.953125 195.640625 C 147.78125 195.894531 147.75 196.167969 147.859375 196.453125 C 148.101562 197.523438 149.894531 198.03125 151.261719 198.832031 C 152.992188 199.839844 154.980469 201.492188 156.894531 202.085938 C 158.195312 202.480469 158.660156 202.128906 159.519531 201.128906 C 162.425781 197.738281 165.125 194.148438 167.726562 190.519531 C 170.695312 186.378906 173.460938 182.105469 176.113281 177.757812 C 177.53125 175.429688 178.964844 173.097656 180.773438 171.042969 C 181.484375 170.234375 183.25 169.234375 182.761719 167.988281 C 182.703125 167.820312 183.394531 165.609375 183.785156 164.753906 Z M 183.785156 164.753906"/><path fill="#F9CE64" d="M 130.0625 127.933594 C 129.78125 124.960938 128.910156 121.914062 128.035156 119.070312 C 127.199219 116.351562 126.273438 113.539062 124.78125 111.078125 C 122.074219 106.628906 117.3125 104.195312 112.808594 101.949219 C 112.765625 101.921875 112.714844 101.917969 112.664062 101.9375 C 112.617188 101.957031 112.582031 101.992188 112.570312 102.046875 C 112.324219 103.097656 112.808594 103.578125 113.585938 104.300781 C 115.265625 105.871094 116.90625 107.320312 118.308594 109.160156 C 119.640625 110.886719 120.734375 112.753906 121.578125 114.765625 C 122.179688 116.234375 122.460938 117.945312 123.476562 119.207031 C 123.742188 119.53125 124.128906 119.773438 124.371094 120.101562 C 124.933594 120.792969 125.960938 122.488281 125.367188 123.433594 C 125.066406 123.902344 124.269531 123.675781 123.863281 123.757812 C 122.199219 124.058594 120.710938 124.738281 119.398438 125.800781 C 119.019531 126.066406 118.722656 126.402344 118.511719 126.8125 C 118.296875 127.21875 118.191406 127.65625 118.191406 128.117188 C 118.167969 128.902344 118.367188 129.691406 118.445312 130.464844 C 118.535156 131.199219 118.527344 131.933594 118.421875 132.667969 C 118.394531 133.046875 118.320312 133.414062 118.195312 133.773438 C 118.023438 134.734375 117.226562 135.011719 115.8125 134.609375 C 115.855469 134.40625 117.0625 137.75 118.15625 137.808594 C 119.9375 137.898438 120.820312 135.992188 121.410156 134.640625 C 122.003906 133.289062 122.421875 131.757812 123.21875 130.53125 C 124.921875 127.902344 126.574219 129.230469 128.640625 129.464844 C 129.921875 129.59375 130.179688 129.136719 130.0625 127.933594 Z M 130.0625 127.933594"/><path fill="#F9CE64" d="M 174.496094 125.941406 C 174.433594 125.910156 174.375 125.914062 174.316406 125.957031 C 174.257812 126 174.238281 126.058594 174.257812 126.128906 C 174.972656 129.398438 173.53125 132.335938 171.410156 134.753906 C 169.910156 136.460938 167.59375 139.195312 165.195312 139.511719 L 165.144531 139.476562 C 165.105469 139.449219 165.066406 139.441406 165.019531 139.453125 C 164.976562 139.46875 164.945312 139.496094 164.925781 139.539062 C 164.851562 139.539062 164.773438 139.539062 164.699219 139.539062 C 164.609375 139.558594 164.566406 139.609375 164.566406 139.703125 C 164.566406 139.792969 164.609375 139.847656 164.699219 139.863281 C 164.835938 139.871094 164.972656 139.871094 165.109375 139.863281 C 165.878906 140.398438 166.8125 141.03125 167.75 141.167969 C 169.144531 141.382812 169.507812 140.425781 170.796875 139.953125 C 172.597656 139.300781 174.605469 139.324219 175.769531 137.519531 C 176.308594 136.679688 176.308594 135.773438 176.289062 134.808594 C 176.269531 133.398438 176.867188 132.34375 177.089844 131.015625 C 177.441406 128.914062 176.273438 126.976562 174.496094 125.941406 Z M 176.195312 133.164062 C 176.144531 133.640625 176.132812 134.109375 176.113281 134.582031 C 176.078125 134.105469 176.105469 133.632812 176.195312 133.164062 Z M 176.195312 133.164062"/><path fill="#F9CE64" d="M 189.039062 145.558594 C 188.246094 144.8125 187.476562 144.234375 186.835938 143.332031 C 186.464844 142.808594 186.246094 142.433594 185.671875 142.125 C 185.601562 142.085938 185.535156 142.09375 185.476562 142.152344 C 185.417969 142.210938 185.410156 142.277344 185.449219 142.347656 C 185.921875 143.324219 186.597656 144.679688 186.621094 145.8125 C 186.683594 145.996094 186.691406 146.179688 186.644531 146.367188 C 186.59375 146.554688 186.5 146.710938 186.355469 146.839844 C 186.320312 147.441406 186.03125 147.753906 185.453125 147.78125 C 184.960938 148.074219 184.238281 148.1875 183.699219 148.367188 C 183.636719 148.390625 183.597656 148.433594 183.585938 148.496094 C 183.574219 148.5625 183.59375 148.617188 183.644531 148.660156 L 183.25 149.214844 C 183.058594 149.132812 182.890625 149.414062 183.085938 149.5 C 184.964844 150.304688 189.246094 151.429688 190.246094 148.757812 C 190.699219 147.53125 189.882812 146.367188 189.039062 145.558594 Z M 189.039062 145.558594"/><path fill="#F9CE64" d="M 205.265625 121.542969 C 205.203125 121.503906 205.140625 121.507812 205.082031 121.554688 C 205.023438 121.597656 205.003906 121.65625 205.023438 121.726562 C 206.195312 124.949219 206.058594 128.96875 203.796875 131.730469 C 202.820312 132.921875 201.492188 133.390625 200.191406 134.132812 C 198.375 135.175781 196.25 136.546875 194.195312 134.945312 C 194.148438 134.910156 194.097656 134.902344 194.042969 134.914062 C 193.984375 134.929688 193.945312 134.960938 193.917969 135.015625 L 193.40625 134.867188 C 193.328125 134.800781 193.25 134.726562 193.175781 134.652344 C 193.023438 134.503906 192.789062 134.738281 192.941406 134.882812 C 195.0625 136.9375 197.382812 137.414062 200.242188 136.980469 C 202.4375 136.65625 205.019531 136.238281 206.226562 134.160156 C 206.753906 133.257812 206.878906 132.386719 207.613281 131.558594 C 208.128906 130.972656 208.757812 130.488281 209.238281 129.878906 C 209.824219 129.230469 210.148438 128.46875 210.214844 127.601562 C 210.378906 124.71875 207.261719 122.964844 205.265625 121.542969 Z M 205.265625 121.542969"/><path fill="#F9CE64" d="M 148.898438 110.003906 C 148.824219 109.96875 148.757812 109.976562 148.695312 110.03125 C 147.921875 110.652344 148.136719 111.769531 147.9375 112.695312 C 147.511719 114.566406 146.789062 116.3125 145.773438 117.9375 C 145.726562 118.007812 145.734375 118.070312 145.796875 118.128906 L 145.191406 118.691406 C 145.0625 118.523438 144.832031 118.757812 144.960938 118.921875 C 145.734375 119.925781 146.667969 120.746094 147.761719 121.386719 C 147.808594 121.414062 147.855469 121.414062 147.90625 121.394531 C 147.953125 121.375 147.988281 121.339844 148 121.289062 C 148.753906 118.746094 149.90625 116.054688 150.21875 113.417969 C 150.363281 112.160156 150.152344 110.601562 148.898438 110.003906 Z M 148.898438 110.003906"/><path fill="#FFF" d="M 151.632812 156.785156 C 150.527344 164.242188 149.429688 171.703125 148.332031 179.160156 C 148.085938 180.816406 150.609375 181.535156 150.867188 179.859375 C 151.96875 172.402344 153.070312 164.941406 154.171875 157.484375 C 154.414062 155.828125 151.878906 155.125 151.632812 156.785156 Z M 151.632812 156.785156"/><path fill="#FFF" d="M 201.171875 95.042969 L 187.703125 101.316406 C 186.167969 102.03125 187.5 104.304688 189.03125 103.59375 L 202.5 97.320312 C 204.035156 96.601562 202.707031 94.332031 201.171875 95.042969 Z M 201.171875 95.042969"/><path fill="#FFF" d="M 137.296875 120.605469 C 136.867188 116.15625 135.90625 111.789062 132.617188 108.542969 C 131.410156 107.351562 129.550781 109.214844 130.757812 110.40625 C 133.53125 113.140625 134.296875 116.859375 134.664062 120.605469 C 134.820312 122.277344 137.453125 122.292969 137.296875 120.605469 Z M 137.296875 120.605469"/><path fill="#FFF" d="M 177.265625 119.203125 C 174.664062 113.34375 166.109375 111.308594 160.320312 111.523438 C 158.628906 111.585938 158.621094 114.222656 160.320312 114.15625 C 165.238281 113.976562 172.75 115.503906 174.996094 120.53125 C 175.695312 122.078125 177.953125 120.738281 177.265625 119.203125 Z M 177.265625 119.203125"/><path fill="#FFF" d="M 179.191406 123.464844 C 177.496094 123.464844 177.492188 126.101562 179.191406 126.101562 C 180.890625 126.101562 180.902344 123.464844 179.191406 123.464844 Z M 179.191406 123.464844"/><path fill="#FFF" d="M 223.132812 113.613281 C 222.828125 111.949219 220.292969 112.652344 220.59375 114.3125 C 221.636719 119.984375 221.636719 125.65625 220.59375 131.328125 C 220.292969 132.988281 222.828125 133.695312 223.136719 132.03125 C 224.265625 125.890625 224.265625 119.753906 223.132812 113.613281 Z M 223.132812 113.613281"/><path fill="#FFF" d="M 220.738281 135.761719 C 219.042969 135.761719 219.042969 138.394531 220.738281 138.394531 C 222.4375 138.394531 222.4375 135.761719 220.738281 135.761719 Z M 220.738281 135.761719"/><path fill="#FFF" d="M 173.09375 144.925781 C 172.964844 144.804688 172.824219 144.710938 172.664062 144.648438 C 172.5 144.582031 172.332031 144.550781 172.160156 144.550781 C 171.984375 144.550781 171.816406 144.582031 171.65625 144.648438 C 171.496094 144.710938 171.351562 144.804688 171.226562 144.925781 L 171.082031 145.070312 C 170.957031 145.195312 170.863281 145.339844 170.792969 145.5 C 170.726562 145.660156 170.695312 145.828125 170.695312 146.003906 C 170.695312 146.179688 170.726562 146.347656 170.792969 146.507812 C 170.863281 146.671875 170.957031 146.8125 171.082031 146.9375 C 171.203125 147.0625 171.347656 147.15625 171.507812 147.222656 C 171.671875 147.289062 171.839844 147.324219 172.015625 147.320312 C 172.1875 147.320312 172.355469 147.289062 172.519531 147.222656 C 172.679688 147.152344 172.820312 147.058594 172.945312 146.933594 L 173.09375 146.789062 C 173.214844 146.664062 173.304688 146.519531 173.371094 146.359375 C 173.4375 146.199219 173.46875 146.03125 173.46875 145.855469 C 173.46875 145.683594 173.4375 145.515625 173.371094 145.355469 C 173.304688 145.191406 173.214844 145.050781 173.09375 144.925781 Z M 173.09375 144.925781"/><path fill="#FFF" d="M 200.210938 139.714844 C 197.625 140.640625 194.578125 141.269531 192.3125 139.28125 C 191.039062 138.171875 189.171875 140.027344 190.449219 141.148438 C 193.464844 143.785156 197.339844 143.53125 200.914062 142.257812 C 202.492188 141.691406 201.8125 139.140625 200.210938 139.714844 Z M 200.210938 139.714844"/><path fill="#FFF" d="M 118.011719 116.941406 C 117.214844 115.515625 116.820312 113.980469 116.824219 112.34375 C 116.824219 110.652344 114.1875 110.648438 114.191406 112.34375 C 114.191406 114.453125 114.707031 116.429688 115.734375 118.269531 C 116.554688 119.753906 118.832031 118.425781 118.011719 116.941406 Z M 118.011719 116.941406"/><path fill="#FFF" d="M 210.515625 117.175781 C 208.820312 117.175781 208.816406 119.808594 210.515625 119.808594 C 212.214844 119.808594 212.199219 117.175781 210.515625 117.175781 Z M 210.515625 117.175781"/><path fill="#FFF" d="M 197.382812 168.796875 C 197.261719 168.675781 197.117188 168.582031 196.957031 168.519531 C 196.796875 168.453125 196.628906 168.421875 196.453125 168.421875 C 196.28125 168.421875 196.113281 168.453125 195.953125 168.519531 C 195.789062 168.582031 195.648438 168.675781 195.523438 168.796875 L 195.375 168.945312 C 195.253906 169.066406 195.160156 169.210938 195.09375 169.371094 C 195.023438 169.53125 194.992188 169.699219 194.992188 169.875 C 194.992188 170.050781 195.027344 170.214844 195.09375 170.378906 C 195.160156 170.539062 195.253906 170.679688 195.378906 170.804688 C 195.5 170.929688 195.644531 171.023438 195.804688 171.089844 C 195.964844 171.15625 196.132812 171.191406 196.308594 171.191406 C 196.480469 171.191406 196.648438 171.15625 196.8125 171.089844 C 196.972656 171.023438 197.113281 170.929688 197.238281 170.804688 L 197.382812 170.660156 C 197.507812 170.535156 197.601562 170.390625 197.664062 170.230469 C 197.730469 170.070312 197.765625 169.902344 197.765625 169.726562 C 197.765625 169.554688 197.730469 169.386719 197.664062 169.226562 C 197.601562 169.0625 197.507812 168.921875 197.382812 168.796875 Z M 197.382812 168.796875"/><path fill="#7C2714" d="M 147.84375 109.558594 L 140.902344 111.835938 C 140.503906 111.953125 140.230469 112.207031 140.085938 112.59375 C 139.878906 112.851562 139.777344 113.144531 139.777344 113.472656 C 139.777344 113.800781 139.878906 114.09375 140.085938 114.347656 C 141.65625 116.371094 143.441406 118.191406 145.429688 119.804688 C 146.128906 120.367188 147.4375 120.296875 147.636719 119.226562 C 148.117188 116.515625 148.726562 113.835938 149.464844 111.183594 C 149.714844 110.25 148.8125 109.25 147.84375 109.558594 Z M 145.503906 116.394531 C 144.652344 115.601562 143.851562 114.769531 143.089844 113.894531 L 146.3125 112.84375 C 146.023438 114.003906 145.757812 115.1875 145.503906 116.394531 Z M 145.503906 116.394531"/><path fill="#7C2714" d="M 175.308594 126.21875 C 174.414062 123.882812 171.992188 123.5625 170.199219 122.222656 C 168.820312 121.199219 168.347656 119.453125 166.722656 118.667969 C 165.457031 118.054688 163.96875 118.101562 162.613281 118.265625 C 160.335938 118.535156 158.261719 119.441406 157.117188 121.296875 C 156.984375 121.40625 156.875 121.53125 156.792969 121.683594 C 156.433594 122.277344 156.152344 122.90625 155.949219 123.570312 C 155.742188 124.234375 155.625 124.910156 155.585938 125.605469 C 155.546875 126.296875 155.59375 126.984375 155.726562 127.667969 C 155.859375 128.347656 156.070312 129.003906 156.363281 129.632812 C 157.792969 132.617188 161.34375 133.625 162.414062 136.769531 C 163.191406 139.046875 164.492188 140.929688 167.234375 140.253906 C 169.976562 139.582031 172.480469 137.074219 173.875 134.65625 C 175.207031 132.34375 176.316406 128.84375 175.308594 126.21875 Z M 171.078125 134.140625 C 170.253906 135.320312 166.949219 138.984375 165.363281 137.304688 C 164.914062 136.832031 164.847656 135.625 164.597656 135.023438 C 164.316406 134.339844 163.929688 133.71875 163.441406 133.164062 C 162.269531 131.8125 160.59375 130.996094 159.445312 129.632812 C 158.824219 128.859375 158.429688 127.984375 158.269531 127.007812 C 158.109375 126.027344 158.203125 125.074219 158.550781 124.144531 C 158.789062 123.964844 158.949219 123.734375 159.03125 123.449219 C 159.71875 121.078125 163.613281 120.066406 165.640625 121.203125 C 167.097656 122.019531 167.78125 123.871094 169.324219 124.785156 C 170.867188 125.699219 172.78125 126.019531 173.003906 128.15625 C 173.210938 130.171875 172.199219 132.527344 171.070312 134.140625 Z M 171.078125 134.140625"/><path fill="#7C2714" d="M 207.113281 125.253906 C 206.984375 122.417969 204.980469 120.59375 202.511719 119.539062 C 199.6875 118.328125 196.003906 117.308594 192.914062 117.488281 C 191.378906 117.578125 190.132812 118.171875 188.816406 118.921875 C 187.425781 119.714844 185.691406 120.457031 184.585938 121.628906 C 184.195312 121.996094 183.921875 122.433594 183.761719 122.945312 C 183.601562 123.457031 183.578125 123.972656 183.691406 124.496094 C 183.949219 125.628906 185.519531 126.585938 185.433594 127.710938 C 185.390625 128.046875 185.484375 128.339844 185.707031 128.589844 C 185.90625 130.023438 186.097656 131.445312 187.222656 132.496094 C 188.394531 133.601562 189.785156 133.472656 191.222656 133.855469 C 192.664062 134.238281 193.535156 135.550781 194.855469 136.171875 C 197.5 137.441406 201.234375 135.597656 203.355469 133.96875 C 205.867188 132.050781 207.261719 128.363281 207.113281 125.253906 Z M 204.277344 127.15625 C 203.6875 129.988281 202.324219 131.859375 199.683594 133.058594 C 198.214844 133.710938 196.8125 134.304688 195.339844 133.382812 C 194.539062 132.890625 193.933594 132.183594 193.089844 131.757812 C 191.222656 130.808594 188.964844 131.59375 188.394531 129.085938 C 188.007812 127.398438 188.035156 125.785156 187.148438 124.242188 C 187.027344 124.023438 186.855469 123.855469 186.636719 123.734375 C 186.914062 122.664062 188.871094 121.945312 189.785156 121.410156 C 190.914062 120.757812 191.96875 120.144531 193.3125 120.105469 C 195.648438 120.042969 198.320312 120.855469 200.519531 121.597656 C 203.285156 122.527344 204.925781 124.035156 204.277344 127.15625 Z M 204.277344 127.15625"/><path fill="#7C2714" d="M 188.761719 146.964844 C 187.730469 144.164062 186.121094 141.75 183.929688 139.726562 C 182.988281 138.863281 181.699219 139.703125 181.652344 140.667969 C 181.496094 140.867188 181.40625 141.089844 181.375 141.339844 C 181.175781 142.859375 180.976562 144.375 180.78125 145.894531 C 180.640625 146.988281 180.207031 148.335938 181.15625 149.1875 C 182.820312 150.660156 186.496094 149.289062 188.152344 148.449219 C 188.414062 148.300781 188.597656 148.085938 188.710938 147.808594 C 188.824219 147.535156 188.84375 147.25 188.761719 146.964844 Z M 184.6875 146.9375 C 184.179688 147.050781 183.667969 147.113281 183.148438 147.128906 C 183.175781 146.359375 183.472656 145.382812 183.566406 144.757812 C 183.628906 144.300781 183.6875 143.84375 183.75 143.378906 C 184.5625 144.378906 185.242188 145.464844 185.785156 146.632812 C 185.425781 146.761719 185.058594 146.863281 184.6875 146.9375 Z M 184.6875 146.9375"/><path fill="#7C2714" d="M 227.738281 206.820312 L 221.730469 202.914062 C 221.582031 202.820312 221.421875 202.757812 221.25 202.730469 C 221.074219 202.703125 220.902344 202.707031 220.734375 202.746094 C 220.5625 202.785156 220.40625 202.859375 220.265625 202.960938 C 220.125 203.066406 220.007812 203.191406 219.917969 203.339844 L 219.886719 203.394531 C 219.804688 203.535156 219.753906 203.691406 219.730469 203.851562 C 219.707031 204.015625 219.714844 204.179688 219.753906 204.339844 C 219.789062 204.5 219.855469 204.648438 219.949219 204.78125 C 220.042969 204.917969 220.160156 205.03125 220.296875 205.121094 L 226.304688 209.027344 C 226.453125 209.121094 226.613281 209.183594 226.785156 209.210938 C 226.960938 209.242188 227.132812 209.234375 227.300781 209.195312 C 227.472656 209.15625 227.628906 209.082031 227.769531 208.980469 C 227.910156 208.875 228.027344 208.75 228.117188 208.597656 L 228.148438 208.546875 C 228.226562 208.402344 228.28125 208.25 228.304688 208.085938 C 228.328125 207.925781 228.320312 207.761719 228.28125 207.601562 C 228.242188 207.441406 228.175781 207.296875 228.082031 207.160156 C 227.988281 207.027344 227.875 206.914062 227.738281 206.820312 Z M 227.738281 206.820312"/><path fill="#7C2714" d="M 241.046875 191.761719 L 222.597656 179.480469 C 222.449219 179.382812 222.289062 179.320312 222.117188 179.289062 C 221.941406 179.261719 221.769531 179.265625 221.597656 179.304688 C 221.425781 179.34375 221.269531 179.417969 221.125 179.519531 C 220.984375 179.625 220.867188 179.75 220.777344 179.902344 L 220.746094 179.953125 C 220.664062 180.09375 220.613281 180.246094 220.589844 180.40625 C 220.566406 180.570312 220.570312 180.730469 220.609375 180.890625 C 220.644531 181.050781 220.710938 181.199219 220.800781 181.332031 C 220.894531 181.46875 221.007812 181.582031 221.144531 181.671875 L 239.59375 193.953125 C 239.742188 194.054688 239.902344 194.117188 240.078125 194.148438 C 240.253906 194.183594 240.425781 194.179688 240.601562 194.140625 C 240.773438 194.097656 240.933594 194.027344 241.078125 193.921875 C 241.222656 193.816406 241.339844 193.6875 241.429688 193.535156 L 241.460938 193.484375 C 241.539062 193.34375 241.59375 193.1875 241.617188 193.027344 C 241.636719 192.863281 241.628906 192.703125 241.59375 192.542969 C 241.554688 192.382812 241.488281 192.234375 241.394531 192.097656 C 241.300781 191.964844 241.183594 191.851562 241.046875 191.761719 Z M 241.046875 191.761719"/><path fill="#7C2714" d="M 253.386719 165.0625 C 249.632812 162.816406 237.089844 155.339844 230.191406 151.449219 C 231.097656 149.058594 231.871094 146.613281 232.566406 144.144531 C 234.332031 137.933594 235.496094 131.613281 236.0625 125.179688 C 236.300781 122.800781 236.363281 120.414062 236.253906 118.019531 L 248.535156 125.96875 C 248.683594 126.0625 248.84375 126.121094 249.015625 126.152344 C 249.1875 126.179688 249.359375 126.171875 249.527344 126.132812 C 249.699219 126.089844 249.855469 126.019531 249.996094 125.914062 C 250.136719 125.8125 250.25 125.6875 250.339844 125.535156 L 250.371094 125.484375 C 250.453125 125.339844 250.507812 125.1875 250.53125 125.023438 C 250.558594 124.859375 250.550781 124.699219 250.511719 124.539062 C 250.472656 124.375 250.40625 124.226562 250.3125 124.09375 C 250.214844 123.957031 250.097656 123.84375 249.960938 123.753906 L 235.777344 114.601562 C 235.335938 112.507812 234.46875 110.609375 233.175781 108.902344 C 230.152344 104.996094 225.125 103.882812 220.660156 105.894531 C 218.476562 106.871094 216.429688 108.566406 215.414062 110.777344 C 215.25 111.132812 215.117188 111.496094 215.007812 111.871094 C 213.183594 111.351562 211.324219 111.113281 209.429688 111.152344 C 208.816406 111.152344 208.191406 111.226562 207.5625 111.28125 C 209.613281 109.011719 211.660156 106.734375 213.707031 104.449219 L 217.378906 100.371094 C 218.183594 99.476562 219.332031 98.550781 219.753906 97.386719 C 220.699219 94.863281 218.128906 93.480469 216.242188 92.5625 C 213.503906 91.234375 210.351562 89.304688 207.261719 88.996094 C 204.0625 88.671875 200.703125 90.488281 197.785156 91.601562 C 194.378906 92.902344 190.988281 94.238281 187.695312 95.792969 C 181.273438 98.816406 175.585938 103.542969 168.792969 105.71875 C 168.5 105.804688 168.269531 105.972656 168.097656 106.226562 C 166.433594 106.066406 164.824219 105.683594 163.265625 105.074219 C 160.511719 103.957031 158.15625 101.714844 155.039062 101.660156 C 152.113281 101.605469 149.507812 103.992188 146.664062 103.75 C 145.105469 103.621094 144.0625 102.230469 142.503906 101.957031 C 140.808594 101.664062 139.09375 102.367188 137.429688 102.542969 C 133.390625 102.960938 129.265625 101.945312 125.3125 101.269531 L 113.054688 99.171875 C 112.929688 99.09375 112.796875 99.03125 112.65625 98.988281 C 111.914062 98.539062 110.609375 98.898438 110.527344 100.066406 C 110.253906 103.464844 109.976562 106.863281 109.699219 110.261719 C 109.441406 113.417969 109.375 116.121094 110.675781 119.089844 C 111.328125 120.59375 112.136719 122.019531 112.566406 123.617188 C 113.027344 125.335938 113.140625 127.113281 113.273438 128.882812 C 113.480469 131.683594 113.65625 134.667969 114.972656 137.207031 C 115.964844 139.121094 117.898438 140.289062 120.011719 139.375 C 122.617188 138.257812 123.074219 135.605469 123.546875 133.125 C 123.929688 131.109375 125.074219 128.660156 127.394531 130.4375 C 128.820312 131.523438 130.089844 132.929688 131.402344 134.152344 C 133.679688 136.257812 136.207031 138.355469 137.746094 141.074219 C 138.753906 142.863281 138.789062 144.425781 138.878906 146.410156 C 138.933594 147.570312 139.207031 148.648438 140.011719 149.519531 C 141.683594 151.320312 144.078125 151.183594 146.25 150.570312 C 145.273438 159.308594 144.320312 168.046875 143.484375 176.792969 C 143.175781 180.058594 142.894531 183.332031 142.640625 186.613281 C 142.515625 188.324219 142.398438 190.035156 142.296875 191.746094 C 142.230469 192.878906 141.972656 194.226562 142.503906 195.296875 C 142.96875 196.203125 143.894531 196.625 144.753906 197.09375 C 146.199219 197.882812 147.683594 198.636719 149.140625 199.390625 C 152.074219 200.910156 155.03125 202.378906 158.003906 203.804688 C 158.15625 203.886719 158.320312 203.933594 158.492188 203.957031 C 158.664062 203.976562 158.832031 203.960938 159 203.917969 C 159.164062 203.875 159.316406 203.800781 159.457031 203.699219 C 159.597656 203.597656 159.710938 203.472656 159.804688 203.328125 C 166.425781 194.46875 172.695312 185.367188 178.617188 176.03125 L 180.464844 177.65625 C 180.640625 177.8125 180.839844 177.917969 181.0625 177.984375 C 181.269531 179.386719 181.660156 180.738281 182.234375 182.035156 C 182.6875 183.039062 183.292969 183.9375 184.054688 184.730469 C 184.816406 185.523438 185.6875 186.167969 186.671875 186.664062 C 186.746094 186.734375 186.828125 186.796875 186.917969 186.847656 C 193.816406 191.027344 200.738281 195.179688 207.675781 199.300781 C 209.132812 200.167969 210.464844 197.890625 209.003906 197.019531 C 203.898438 193.984375 198.800781 190.933594 193.710938 187.871094 C 194.625 187.769531 195.515625 187.570312 196.386719 187.277344 C 197.601562 186.867188 198.746094 186.304688 199.8125 185.589844 C 199.921875 185.5625 200.023438 185.523438 200.121094 185.46875 C 205.398438 182.679688 209.820312 178.042969 214.113281 173.960938 C 218.304688 169.96875 222.296875 165.714844 225.484375 160.867188 C 226.921875 158.652344 228.160156 156.332031 229.199219 153.90625 C 235.980469 157.734375 248.289062 165.078125 252.039062 167.320312 C 252.1875 167.40625 252.347656 167.460938 252.515625 167.484375 C 252.683594 167.507812 252.851562 167.496094 253.019531 167.453125 C 253.183594 167.414062 253.335938 167.339844 253.472656 167.238281 C 253.609375 167.136719 253.722656 167.011719 253.808594 166.863281 L 253.84375 166.808594 C 253.925781 166.660156 253.976562 166.503906 254 166.335938 C 254.019531 166.171875 254.007812 166.003906 253.964844 165.84375 C 253.925781 165.679688 253.851562 165.53125 253.753906 165.394531 C 253.652344 165.261719 253.53125 165.148438 253.386719 165.0625 Z M 127.507812 127.414062 C 124.984375 126.3125 122.683594 127.835938 121.648438 130.175781 C 121.027344 131.550781 121.027344 133.035156 120.636719 134.476562 C 120.28125 135.78125 119.199219 138.292969 117.382812 136.179688 C 116.945312 135.664062 116.675781 134.433594 116.511719 133.765625 C 115.59375 130.089844 116.085938 126.199219 115 122.558594 C 114.527344 121 113.746094 119.578125 113.089844 118.101562 C 112.210938 116.128906 112.035156 114.363281 112.171875 112.242188 C 112.378906 108.96875 112.675781 105.699219 112.957031 102.433594 C 117.136719 105.746094 121.3125 109.269531 124.277344 113.734375 C 126.109375 116.5 127.328125 119.511719 127.9375 122.773438 C 128.265625 124.371094 128.46875 125.980469 128.710938 127.589844 C 128.738281 127.777344 128.761719 127.972656 128.789062 128.167969 C 128.390625 127.867188 127.964844 127.617188 127.507812 127.414062 Z M 131.859375 130.34375 C 131.417969 129.546875 131.445312 128.191406 131.308594 127.308594 C 130.695312 123.316406 130.160156 119.378906 128.417969 115.6875 C 125.929688 110.402344 121.722656 106.269531 117.273438 102.550781 L 123.78125 103.667969 C 127.46875 104.292969 131.214844 105.140625 134.960938 105.246094 C 136.726562 105.253906 138.46875 105.082031 140.199219 104.726562 C 141.75 104.449219 142.527344 104.726562 143.800781 105.488281 C 144.242188 105.757812 144.707031 105.976562 145.195312 106.140625 C 147.917969 106.964844 150.402344 105.367188 152.953125 104.636719 C 156.480469 103.609375 158.914062 106.039062 161.96875 107.347656 C 164.746094 108.539062 167.757812 108.933594 170.753906 109.019531 C 177.125 109.195312 184.042969 107.828125 189.878906 111.066406 C 190.464844 110.285156 186.707031 106.929688 184.347656 106.605469 C 180.976562 106.148438 177.480469 106.324219 174.03125 106.386719 C 177.453125 104.699219 180.636719 102.558594 183.980469 100.664062 C 189.441406 97.5625 195.296875 95.296875 201.175781 93.128906 C 202.535156 92.628906 203.929688 91.988281 205.359375 91.703125 C 207.179688 91.347656 208.746094 92 210.382812 92.71875 C 211.785156 93.332031 213.171875 93.980469 214.550781 94.644531 C 215.15625 94.933594 216.078125 95.171875 216.542969 95.640625 C 217.191406 96.289062 217.265625 96.328125 216.664062 97.246094 C 215.035156 99.730469 212.433594 101.941406 210.449219 104.148438 L 203.960938 111.347656 C 203.253906 111.253906 199.101562 112.148438 200.585938 112.976562 C 202.746094 114.171875 204.972656 114.121094 207.371094 113.917969 C 209.84375 113.667969 212.277344 113.871094 214.671875 114.523438 C 214.703125 115.832031 214.804688 117.132812 214.976562 118.429688 C 215.546875 123.789062 215.117188 129.066406 213.695312 134.265625 C 212.453125 138.792969 210.550781 143.027344 207.988281 146.960938 C 206.269531 145.984375 203.5 144.03125 201.414062 144.539062 C 199.328125 145.046875 197.292969 147.628906 195.882812 149.09375 C 194.660156 150.339844 191.976562 152.476562 191.714844 154.304688 C 191.46875 156.046875 193.710938 158.277344 195.003906 159.671875 C 193.332031 160.746094 191.59375 161.738281 189.796875 162.675781 C 189.777344 162.683594 189.757812 162.695312 189.742188 162.710938 C 189.101562 162.679688 188.484375 162.539062 187.890625 162.292969 C 184.992188 161.0625 182.78125 157.925781 180.28125 156.039062 C 178.023438 154.335938 175.398438 152.992188 172.46875 153.109375 C 171.199219 153.167969 169.960938 153.5 168.707031 153.695312 C 167.621094 153.859375 166.238281 154.050781 165.519531 152.953125 C 164.980469 152.128906 165.078125 150.792969 164.945312 149.851562 C 164.042969 143.445312 158.074219 140.046875 153.015625 137.0625 C 150.03125 135.308594 147.574219 133.398438 145.414062 130.675781 C 143.75 128.574219 141.410156 126.390625 138.480469 127.066406 C 136.804688 127.453125 135.835938 128.695312 134.652344 129.835938 C 133.898438 130.574219 132.617188 131.714844 131.859375 130.328125 Z M 206.46875 149.144531 C 206.144531 149.585938 205.820312 150.027344 205.460938 150.445312 C 203.058594 153.40625 200.300781 155.984375 197.1875 158.1875 C 196.488281 157.398438 194.261719 155.117188 194.492188 154.402344 C 194.613281 154.03125 195.832031 152.984375 196.164062 152.613281 C 196.675781 152.046875 197.191406 151.496094 197.726562 150.949219 C 198.746094 149.914062 199.832031 148.605469 201.066406 147.839844 C 202.179688 147.144531 202.667969 147.222656 203.839844 147.765625 C 204.742188 148.175781 205.609375 148.640625 206.46875 149.128906 Z M 181.226562 166.777344 C 174.121094 178.539062 166.464844 189.953125 158.253906 201.019531 C 155.894531 199.871094 153.539062 198.703125 151.191406 197.507812 C 149.96875 196.882812 148.75 196.25 147.53125 195.609375 C 145.796875 194.695312 144.769531 194.34375 144.894531 192.191406 C 145.253906 186.054688 145.789062 179.9375 146.402344 173.820312 C 147.402344 163.773438 148.03125 158.171875 149.152344 148.136719 C 148.691406 144.601562 148.175781 141.457031 147.175781 142.203125 C 146.976562 144.042969 146.773438 145.886719 146.5625 147.734375 C 144.535156 148.449219 141.578125 149.175781 141.5 146.105469 C 141.460938 144.640625 141.472656 143.296875 140.984375 141.875 C 140.007812 139.050781 137.949219 136.757812 135.835938 134.714844 C 135.34375 134.234375 134.835938 133.765625 134.328125 133.289062 C 134.507812 133.21875 134.6875 133.132812 134.859375 133.039062 C 135.878906 132.472656 136.574219 131.578125 137.40625 130.761719 C 139.136719 129.097656 140.984375 129.625 142.503906 131.273438 C 144.285156 133.203125 145.757812 135.179688 147.789062 136.789062 L 150.222656 138.457031 C 152.09375 139.617188 154.039062 140.644531 155.878906 141.851562 C 158.484375 143.558594 161.136719 145.851562 162.0625 148.929688 C 162.757812 151.207031 162.214844 153.929688 164.363281 155.554688 C 166.292969 157.015625 168.796875 156.320312 170.960938 155.945312 C 174.144531 155.386719 176.703125 156.542969 179.175781 158.507812 C 180.402344 159.484375 181.53125 160.625 182.6875 161.703125 C 182.210938 163.394531 181.722656 165.085938 181.226562 166.777344 Z M 202.890625 177.058594 C 201.617188 183.035156 194.539062 186.800781 188.84375 184.804688 C 180.972656 182.046875 183.265625 170.195312 185.894531 164.25 C 188.433594 165.707031 190.941406 165.101562 193.796875 165.226562 C 199.492188 165.441406 204.089844 171.511719 202.902344 177.058594 Z M 227.601562 150.921875 C 227.1875 151.257812 227.015625 151.695312 227.078125 152.222656 C 226.394531 153.875 225.609375 155.480469 224.730469 157.039062 C 221.742188 162.308594 217.675781 166.84375 213.324219 171.074219 C 210.71875 173.597656 208.042969 176.351562 205.160156 178.785156 C 205.460938 177.863281 205.640625 176.917969 205.703125 175.953125 C 205.800781 174.136719 205.5 172.394531 204.808594 170.714844 C 208.070312 168.367188 211.050781 165.703125 213.75 162.722656 C 217.613281 158.441406 222.789062 146.472656 220.910156 146.902344 C 219.019531 151.179688 216.605469 155.136719 213.667969 158.777344 C 210.734375 162.414062 207.375 165.609375 203.59375 168.359375 C 202.117188 166.070312 200.121094 164.410156 197.597656 163.375 C 196.785156 163.058594 195.945312 162.839844 195.078125 162.722656 C 202.238281 158.320312 208.140625 152.582031 212.226562 144.984375 C 216.640625 136.777344 218.613281 127.355469 217.578125 118.085938 C 217.410156 116.898438 217.324219 115.703125 217.324219 114.503906 C 217.570312 114.097656 217.613281 113.671875 217.460938 113.222656 C 217.660156 112.082031 218.164062 111.09375 218.964844 110.261719 C 220.917969 108.210938 224.050781 107.054688 226.863281 107.699219 C 233.101562 109.132812 233.867188 116.769531 233.648438 121.980469 C 233.335938 128.175781 232.414062 134.277344 230.878906 140.285156 C 230.011719 143.898438 228.925781 147.445312 227.613281 150.921875 Z M 227.601562 150.921875"/><path fill="#7C2714" d="M 253.730469 147.148438 L 242.828125 140.382812 C 242.574219 140.226562 242.300781 140.167969 242.003906 140.199219 C 241.707031 140.234375 241.453125 140.355469 241.242188 140.5625 C 241.105469 140.703125 241.007812 140.867188 240.945312 141.050781 C 240.882812 141.234375 240.863281 141.421875 240.882812 141.617188 C 240.90625 141.8125 240.96875 141.988281 241.070312 142.15625 C 241.171875 142.320312 241.304688 142.457031 241.46875 142.5625 L 252.34375 149.378906 C 252.488281 149.46875 252.648438 149.523438 252.816406 149.550781 C 252.988281 149.574219 253.15625 149.566406 253.320312 149.527344 C 253.488281 149.484375 253.640625 149.414062 253.78125 149.3125 C 253.917969 149.210938 254.03125 149.089844 254.121094 148.941406 L 254.152344 148.894531 C 254.234375 148.75 254.289062 148.59375 254.3125 148.429688 C 254.335938 148.261719 254.328125 148.101562 254.289062 147.9375 C 254.25 147.773438 254.183594 147.625 254.085938 147.488281 C 253.988281 147.351562 253.871094 147.238281 253.730469 147.148438 Z M 253.730469 147.148438"/><path fill="#7C2714" d="M 265.34375 133.363281 L 260.480469 130.203125 C 260.332031 130.109375 260.171875 130.050781 260 130.019531 C 259.828125 129.992188 259.65625 129.996094 259.484375 130.039062 C 259.316406 130.078125 259.160156 130.152344 259.019531 130.253906 C 258.878906 130.355469 258.761719 130.484375 258.671875 130.632812 L 258.644531 130.679688 C 258.5625 130.820312 258.507812 130.976562 258.484375 131.140625 C 258.457031 131.304688 258.464844 131.46875 258.503906 131.628906 C 258.542969 131.789062 258.609375 131.9375 258.707031 132.074219 C 258.804688 132.210938 258.921875 132.320312 259.0625 132.410156 L 263.941406 135.535156 C 264.199219 135.695312 264.476562 135.757812 264.773438 135.726562 C 265.074219 135.691406 265.328125 135.570312 265.542969 135.359375 C 265.679688 135.222656 265.78125 135.0625 265.84375 134.878906 C 265.910156 134.695312 265.933594 134.507812 265.914062 134.316406 C 265.894531 134.121094 265.832031 133.941406 265.734375 133.777344 C 265.632812 133.609375 265.503906 133.472656 265.34375 133.363281 Z M 265.34375 133.363281"/><g fill="#7C2714"><g><g><path d="M 9.574219 -0.222656 C 10.023438 -3.191406 11.199219 -7.953125 11.816406 -8.566406 C 13.101562 -8.792969 19.316406 -9.574219 19.820312 -9.6875 L 20.664062 -7.671875 C 23.292969 -2.296875 21.109375 -6.328125 24.359375 -0.839844 C 27.15625 -1.398438 27.550781 -1.734375 30.292969 -2.519531 C 30.40625 -2.574219 30.460938 -2.574219 30.515625 -2.574219 C 30.40625 -3.023438 30.238281 -3.527344 29.003906 -6.945312 C 27.886719 -10.359375 26.878906 -12.878906 24.75 -17.972656 C 22.847656 -22.285156 18.199219 -32.195312 17.359375 -34.605469 C 12.488281 -34.15625 11.535156 -34.101562 10.695312 -33.933594 L 8.289062 -33.597656 C 7.503906 -30.574219 5.039062 -20.382812 4.703125 -18.308594 C 4.253906 -16.015625 2.464844 -4.871094 1.679688 -0.671875 L 2.574219 -0.671875 C 4.925781 -0.617188 7.222656 -0.449219 9.574219 -0.222656 Z M 12.824219 -13.886719 L 14.671875 -24.582031 C 15.34375 -21.054688 16.964844 -16.855469 17.804688 -14.671875 L 13.71875 -14.054688 Z M 12.824219 -13.886719" transform="translate(100.184 258.666)"/></g></g></g><g fill="#7C2714"><g><g><path d="M 22.398438 1.230469 C 22.789062 -7.617188 22.34375 1.0625 22.902344 -7.449219 L 23.070312 -8.566406 C 23.015625 -8.566406 22.902344 -8.566406 22.847656 -8.511719 L 22.007812 -8.34375 L 21.613281 -8.230469 L 21.335938 -8.230469 C 20.71875 -8.175781 20.101562 -8.121094 19.484375 -8.121094 C 18.140625 -8.121094 13.214844 -8.457031 11.535156 -8.457031 C 11.589844 -10.304688 11.589844 -15.566406 11.589844 -16.351562 C 11.589844 -18.253906 11.535156 -20.15625 11.367188 -22.007812 C 11.421875 -24.191406 11.703125 -29.734375 11.703125 -30.40625 C 11.816406 -31.078125 11.816406 -32.140625 11.871094 -33.597656 C 10.078125 -33.597656 2.96875 -33.429688 1.679688 -33.429688 C 1.679688 -12.992188 2.070312 -29.734375 2.070312 -8.566406 C 2.015625 -6.496094 1.902344 -1.960938 1.679688 0.113281 C 3.078125 0.0546875 4.421875 0 5.765625 0 C 11.871094 0 15.566406 0.785156 20.941406 1.175781 C 21.445312 1.230469 21.949219 1.230469 22.398438 1.230469 Z M 22.398438 1.230469" transform="translate(132.38 258.666)"/></g></g></g><g fill="#7C2714"><g><g><path d="M 9.742188 0 C 10.136719 -0.113281 10.527344 -0.167969 10.863281 -0.28125 C 13.214844 -0.671875 14.949219 -0.839844 16.855469 -1.34375 C 17.023438 -3.472656 17.414062 -8.792969 17.636719 -10.023438 C 17.636719 -10.695312 17.582031 -11.367188 17.582031 -12.039062 C 17.191406 -23.796875 17.191406 -24.917969 17.132812 -26.09375 L 17.132812 -27.382812 C 19.207031 -27.324219 23.6875 -27.046875 23.6875 -27.550781 C 23.574219 -28.78125 23.40625 -30.011719 23.238281 -31.246094 C 23.125 -32.027344 23.070312 -32.8125 22.957031 -33.652344 C 22.621094 -33.597656 22.230469 -33.597656 21.839844 -33.539062 C 19.484375 -33.429688 17.191406 -33.316406 14.839844 -33.316406 C 12.992188 -33.316406 7.894531 -33.820312 7 -33.820312 C 6.664062 -33.820312 6.328125 -33.820312 5.992188 -33.878906 C 4.757812 -33.878906 2.855469 -34.046875 2.40625 -34.214844 C 2.183594 -31.804688 1.902344 -29.398438 1.679688 -26.988281 C 3.976562 -26.988281 6.269531 -27.101562 8.625 -27.214844 C 8.679688 -21.558594 9.015625 -15.902344 9.128906 -10.191406 C 9.574219 -7.449219 9.6875 -4.589844 9.742188 -1.792969 Z M 9.742188 0" transform="translate(157.128 258.666)"/></g></g></g><g fill="#7C2714"><g><g><path d="M 9.574219 -0.222656 C 10.023438 -3.191406 11.199219 -7.953125 11.816406 -8.566406 C 13.101562 -8.792969 19.316406 -9.574219 19.820312 -9.6875 L 20.664062 -7.671875 C 23.292969 -2.296875 21.109375 -6.328125 24.359375 -0.839844 C 27.15625 -1.398438 27.550781 -1.734375 30.292969 -2.519531 C 30.40625 -2.574219 30.460938 -2.574219 30.515625 -2.574219 C 30.40625 -3.023438 30.238281 -3.527344 29.003906 -6.945312 C 27.886719 -10.359375 26.878906 -12.878906 24.75 -17.972656 C 22.847656 -22.285156 18.199219 -32.195312 17.359375 -34.605469 C 12.488281 -34.15625 11.535156 -34.101562 10.695312 -33.933594 L 8.289062 -33.597656 C 7.503906 -30.574219 5.039062 -20.382812 4.703125 -18.308594 C 4.253906 -16.015625 2.464844 -4.871094 1.679688 -0.671875 L 2.574219 -0.671875 C 4.925781 -0.617188 7.222656 -0.449219 9.574219 -0.222656 Z M 12.824219 -13.886719 L 14.671875 -24.582031 C 15.34375 -21.054688 16.964844 -16.855469 17.804688 -14.671875 L 13.71875 -14.054688 Z M 12.824219 -13.886719" transform="translate(182.492 258.666)"/></g></g></g><g fill="#7C2714"><g><g><path d="M 1.847656 0 C 2.070312 -0.0546875 2.351562 -0.0546875 2.574219 -0.0546875 C 3.695312 -0.222656 7.558594 -0.28125 8.34375 -0.28125 L 8.734375 -8.007812 L 8.679688 -16.238281 C 9.574219 -14.558594 10.527344 -12.878906 11.535156 -11.199219 C 16.855469 -2.351562 15.285156 -5.710938 17.191406 -0.503906 C 20.15625 -0.503906 23.125 -0.503906 26.09375 -0.449219 C 26.148438 -1.734375 26.148438 -6.832031 26.148438 -8.0625 C 26.207031 -10.191406 26.207031 -27.886719 26.261719 -29.902344 C 24.636719 -30.011719 20.101562 -30.238281 19.484375 -30.292969 L 19.484375 -29.902344 C 19.542969 -28.949219 19.484375 -27.941406 19.316406 -12.207031 L 18.476562 -13.886719 L 11.085938 -30.574219 L 10.976562 -30.742188 C 10.359375 -30.796875 4.480469 -31.1875 2.183594 -31.246094 C 1.792969 -26.484375 1.679688 -21.277344 1.679688 -16.238281 C 1.679688 -10.023438 1.847656 -4.144531 1.847656 0 Z M 1.847656 0" transform="translate(214.688 258.666)"/></g></g></g><g fill="#7C2714"><g><g><path d="M 9.574219 -0.222656 C 10.023438 -3.191406 11.199219 -7.953125 11.816406 -8.566406 C 13.101562 -8.792969 19.316406 -9.574219 19.820312 -9.6875 L 20.664062 -7.671875 C 23.292969 -2.296875 21.109375 -6.328125 24.359375 -0.839844 C 27.15625 -1.398438 27.550781 -1.734375 30.292969 -2.519531 C 30.40625 -2.574219 30.460938 -2.574219 30.515625 -2.574219 C 30.40625 -3.023438 30.238281 -3.527344 29.003906 -6.945312 C 27.886719 -10.359375 26.878906 -12.878906 24.75 -17.972656 C 22.847656 -22.285156 18.199219 -32.195312 17.359375 -34.605469 C 12.488281 -34.15625 11.535156 -34.101562 10.695312 -33.933594 L 8.289062 -33.597656 C 7.503906 -30.574219 5.039062 -20.382812 4.703125 -18.308594 C 4.253906 -16.015625 2.464844 -4.871094 1.679688 -0.671875 L 2.574219 -0.671875 C 4.925781 -0.617188 7.222656 -0.449219 9.574219 -0.222656 Z M 12.824219 -13.886719 L 14.671875 -24.582031 C 15.34375 -21.054688 16.964844 -16.855469 17.804688 -14.671875 L 13.71875 -14.054688 Z M 12.824219 -13.886719" transform="translate(242.628 258.666)"/></g></g></g></svg>